<svg width="44" height="40" viewBox="0 0 44 40" fill="none" xmlns="http://www.w3.org/2000/svg">
<path d="M31.6366 0C27.7275 0.00603698 24.0656 1.91266 21.8184 5.1112C19.5712 1.91266 15.9092 0.00603698 12.0001 0C5.60729 0 0 5.94785 0 12.7274C0 19.3347 3.73086 26.1398 10.7899 32.4076C14.0605 35.3061 17.6482 37.8256 21.4846 39.919C21.6941 40.027 21.9427 40.027 22.1522 39.919C25.9871 37.8256 29.5738 35.3057 32.8433 32.4076C39.9059 26.1398 43.6367 19.3347 43.6367 12.7274C43.6367 5.94785 38.0295 0 31.6366 0ZM21.8184 38.446C19.1472 36.9719 1.45456 26.6735 1.45456 12.7274C1.45456 6.72236 6.3818 1.45456 12.0001 1.45456C15.8062 1.46131 19.3148 3.51459 21.1848 6.82996C21.3248 7.04374 21.563 7.17229 21.8184 7.17229C22.0737 7.17229 22.312 7.04374 22.4519 6.82996C24.3219 3.51459 27.8305 1.46131 31.6366 1.45456C37.2549 1.45456 42.1822 6.72236 42.1822 12.7274C42.1822 26.6735 24.4896 36.9719 21.8184 38.446Z" fill="#121212"/>
</svg>
